<mxfile host="app.diagrams.net" modified="2021-03-09T11:23:01.377Z" agent="5.0 (Windows NT 10.0; Win64; x64) AppleWebKit/537.36 (KHTML, like Gecko) Chrome/88.0.4324.190 Safari/537.36" etag="3OJ-yJ95BKOf8ombkb_H" version="14.4.4" type="github">
  <diagram id="PGTwOda09oGANNpAxTz2" name="Page-1">
    <mxGraphModel dx="4737" dy="3064" grid="1" gridSize="10" guides="1" tooltips="1" connect="1" arrows="1" fold="1" page="1" pageScale="1" pageWidth="827" pageHeight="1169" math="0" shadow="0">
      <root>
        <mxCell id="0" />
        <mxCell id="1" parent="0" />
        <mxCell id="Bojr1MQls4f5MVIDZhrv-1" value="" style="edgeStyle=orthogonalEdgeStyle;rounded=0;orthogonalLoop=1;jettySize=auto;html=1;" edge="1" parent="1" target="Bojr1MQls4f5MVIDZhrv-5">
          <mxGeometry relative="1" as="geometry">
            <mxPoint x="-99" y="-830" as="sourcePoint" />
          </mxGeometry>
        </mxCell>
        <mxCell id="Bojr1MQls4f5MVIDZhrv-2" value="" style="edgeStyle=none;orthogonalLoop=1;jettySize=auto;html=1;fontSize=40;" edge="1" parent="1" source="Bojr1MQls4f5MVIDZhrv-3" target="Bojr1MQls4f5MVIDZhrv-5">
          <mxGeometry relative="1" as="geometry" />
        </mxCell>
        <mxCell id="Bojr1MQls4f5MVIDZhrv-3" value="Login" style="rounded=0;whiteSpace=wrap;html=1;fillColor=#ffcccc;strokeColor=#36393d;" vertex="1" parent="1">
          <mxGeometry x="-159.17000000000002" y="-880" width="120" height="60" as="geometry" />
        </mxCell>
        <mxCell id="Bojr1MQls4f5MVIDZhrv-4" value="" style="edgeStyle=orthogonalEdgeStyle;rounded=0;orthogonalLoop=1;jettySize=auto;html=1;entryX=0.5;entryY=0;entryDx=0;entryDy=0;" edge="1" parent="1" source="Bojr1MQls4f5MVIDZhrv-5" target="Bojr1MQls4f5MVIDZhrv-7">
          <mxGeometry relative="1" as="geometry">
            <mxPoint x="-99.17000000000002" y="-700.0000000000001" as="targetPoint" />
          </mxGeometry>
        </mxCell>
        <mxCell id="Bojr1MQls4f5MVIDZhrv-5" value="Day-in" style="rounded=0;whiteSpace=wrap;html=1;fillColor=#ffcccc;strokeColor=#36393d;" vertex="1" parent="1">
          <mxGeometry x="-159.17000000000002" y="-780" width="120" height="60" as="geometry" />
        </mxCell>
        <mxCell id="Bojr1MQls4f5MVIDZhrv-6" value="" style="edgeStyle=orthogonalEdgeStyle;rounded=0;orthogonalLoop=1;jettySize=auto;html=1;" edge="1" parent="1" source="Bojr1MQls4f5MVIDZhrv-7">
          <mxGeometry relative="1" as="geometry">
            <mxPoint x="-99" y="-570" as="targetPoint" />
          </mxGeometry>
        </mxCell>
        <mxCell id="Bojr1MQls4f5MVIDZhrv-7" value="Item selection" style="rounded=0;whiteSpace=wrap;html=1;fillColor=#ffcccc;strokeColor=#36393d;" vertex="1" parent="1">
          <mxGeometry x="-159.17000000000002" y="-680" width="120" height="60" as="geometry" />
        </mxCell>
        <mxCell id="Bojr1MQls4f5MVIDZhrv-8" value="" style="edgeStyle=orthogonalEdgeStyle;rounded=0;orthogonalLoop=1;jettySize=auto;html=1;" edge="1" parent="1" source="Bojr1MQls4f5MVIDZhrv-9" target="Bojr1MQls4f5MVIDZhrv-38">
          <mxGeometry relative="1" as="geometry" />
        </mxCell>
        <mxCell id="Bojr1MQls4f5MVIDZhrv-9" value="Complimentory Bill" style="rounded=0;whiteSpace=wrap;html=1;fillColor=#a20025;strokeColor=#6F0000;fontColor=#ffffff;" vertex="1" parent="1">
          <mxGeometry x="-449.17" y="-510" width="120" height="60" as="geometry" />
        </mxCell>
        <mxCell id="Bojr1MQls4f5MVIDZhrv-10" value="" style="edgeStyle=orthogonalEdgeStyle;rounded=0;orthogonalLoop=1;jettySize=auto;html=1;" edge="1" parent="1" source="Bojr1MQls4f5MVIDZhrv-11" target="Bojr1MQls4f5MVIDZhrv-37">
          <mxGeometry relative="1" as="geometry" />
        </mxCell>
        <mxCell id="Bojr1MQls4f5MVIDZhrv-11" value="Accounts" style="rounded=0;whiteSpace=wrap;html=1;fillColor=#a20025;strokeColor=#6F0000;fontColor=#ffffff;" vertex="1" parent="1">
          <mxGeometry x="-620" y="-510" width="120" height="60" as="geometry" />
        </mxCell>
        <mxCell id="Bojr1MQls4f5MVIDZhrv-12" value="" style="edgeStyle=orthogonalEdgeStyle;rounded=0;orthogonalLoop=1;jettySize=auto;html=1;" edge="1" parent="1" source="Bojr1MQls4f5MVIDZhrv-13" target="Bojr1MQls4f5MVIDZhrv-40">
          <mxGeometry relative="1" as="geometry" />
        </mxCell>
        <mxCell id="Bojr1MQls4f5MVIDZhrv-13" value="CRM" style="rounded=0;whiteSpace=wrap;html=1;fillColor=#a20025;strokeColor=#6F0000;fontColor=#ffffff;" vertex="1" parent="1">
          <mxGeometry x="-159.17000000000002" y="-510" width="120" height="60" as="geometry" />
        </mxCell>
        <mxCell id="Bojr1MQls4f5MVIDZhrv-14" value="" style="edgeStyle=orthogonalEdgeStyle;rounded=0;orthogonalLoop=1;jettySize=auto;html=1;" edge="1" parent="1" source="Bojr1MQls4f5MVIDZhrv-15" target="Bojr1MQls4f5MVIDZhrv-39">
          <mxGeometry relative="1" as="geometry" />
        </mxCell>
        <mxCell id="Bojr1MQls4f5MVIDZhrv-15" value="Estimate Order" style="rounded=0;whiteSpace=wrap;html=1;fillColor=#a20025;strokeColor=#6F0000;fontColor=#ffffff;" vertex="1" parent="1">
          <mxGeometry x="-309.17" y="-510" width="120" height="60" as="geometry" />
        </mxCell>
        <mxCell id="Bojr1MQls4f5MVIDZhrv-16" value="" style="edgeStyle=orthogonalEdgeStyle;rounded=0;orthogonalLoop=1;jettySize=auto;html=1;" edge="1" parent="1" source="Bojr1MQls4f5MVIDZhrv-17" target="Bojr1MQls4f5MVIDZhrv-44">
          <mxGeometry relative="1" as="geometry" />
        </mxCell>
        <mxCell id="Bojr1MQls4f5MVIDZhrv-17" value="Cake/Pre-order" style="rounded=0;whiteSpace=wrap;html=1;fillColor=#a20025;strokeColor=#6F0000;fontColor=#ffffff;" vertex="1" parent="1">
          <mxGeometry x="150.83000000000004" y="-510" width="120" height="60" as="geometry" />
        </mxCell>
        <mxCell id="Bojr1MQls4f5MVIDZhrv-18" value="" style="edgeStyle=orthogonalEdgeStyle;rounded=0;orthogonalLoop=1;jettySize=auto;html=1;" edge="1" parent="1" source="Bojr1MQls4f5MVIDZhrv-19" target="Bojr1MQls4f5MVIDZhrv-42">
          <mxGeometry relative="1" as="geometry" />
        </mxCell>
        <mxCell id="Bojr1MQls4f5MVIDZhrv-19" value="Online Orders" style="rounded=0;whiteSpace=wrap;html=1;fillColor=#a20025;strokeColor=#6F0000;fontColor=#ffffff;" vertex="1" parent="1">
          <mxGeometry y="-510" width="120" height="60" as="geometry" />
        </mxCell>
        <mxCell id="Bojr1MQls4f5MVIDZhrv-20" value="" style="edgeStyle=orthogonalEdgeStyle;rounded=0;orthogonalLoop=1;jettySize=auto;html=1;" edge="1" parent="1" source="Bojr1MQls4f5MVIDZhrv-21" target="Bojr1MQls4f5MVIDZhrv-46">
          <mxGeometry relative="1" as="geometry" />
        </mxCell>
        <mxCell id="Bojr1MQls4f5MVIDZhrv-21" value="B2B" style="rounded=0;whiteSpace=wrap;html=1;fillColor=#a20025;strokeColor=#6F0000;fontColor=#ffffff;" vertex="1" parent="1">
          <mxGeometry x="290" y="-510" width="120" height="60" as="geometry" />
        </mxCell>
        <mxCell id="Bojr1MQls4f5MVIDZhrv-22" value="" style="endArrow=none;html=1;" edge="1" parent="1">
          <mxGeometry width="50" height="50" relative="1" as="geometry">
            <mxPoint x="340" y="-570" as="sourcePoint" />
            <mxPoint x="-560" y="-570" as="targetPoint" />
          </mxGeometry>
        </mxCell>
        <mxCell id="Bojr1MQls4f5MVIDZhrv-23" value="" style="endArrow=classic;html=1;entryX=0.5;entryY=0;entryDx=0;entryDy=0;" edge="1" parent="1">
          <mxGeometry width="50" height="50" relative="1" as="geometry">
            <mxPoint x="-560" y="-570" as="sourcePoint" />
            <mxPoint x="-559.1700000000001" y="-510" as="targetPoint" />
            <Array as="points">
              <mxPoint x="-559" y="-530" />
            </Array>
          </mxGeometry>
        </mxCell>
        <mxCell id="Bojr1MQls4f5MVIDZhrv-24" value="" style="endArrow=classic;html=1;entryX=0.5;entryY=0;entryDx=0;entryDy=0;" edge="1" parent="1" target="Bojr1MQls4f5MVIDZhrv-9">
          <mxGeometry width="50" height="50" relative="1" as="geometry">
            <mxPoint x="-389.1700000000001" y="-570" as="sourcePoint" />
            <mxPoint x="-530" y="-510" as="targetPoint" />
          </mxGeometry>
        </mxCell>
        <mxCell id="Bojr1MQls4f5MVIDZhrv-25" value="" style="endArrow=classic;html=1;entryX=0.5;entryY=0;entryDx=0;entryDy=0;" edge="1" parent="1">
          <mxGeometry width="50" height="50" relative="1" as="geometry">
            <mxPoint x="-250" y="-570" as="sourcePoint" />
            <mxPoint x="-249.17000000000007" y="-510" as="targetPoint" />
          </mxGeometry>
        </mxCell>
        <mxCell id="Bojr1MQls4f5MVIDZhrv-26" value="" style="endArrow=classic;html=1;entryX=0.5;entryY=0;entryDx=0;entryDy=0;" edge="1" parent="1">
          <mxGeometry width="50" height="50" relative="1" as="geometry">
            <mxPoint x="-100" y="-570" as="sourcePoint" />
            <mxPoint x="-100" y="-510" as="targetPoint" />
          </mxGeometry>
        </mxCell>
        <mxCell id="Bojr1MQls4f5MVIDZhrv-27" value="" style="endArrow=classic;html=1;entryX=0.5;entryY=0;entryDx=0;entryDy=0;" edge="1" parent="1">
          <mxGeometry width="50" height="50" relative="1" as="geometry">
            <mxPoint x="59.159999999999854" y="-570" as="sourcePoint" />
            <mxPoint x="59.98999999999978" y="-510" as="targetPoint" />
          </mxGeometry>
        </mxCell>
        <mxCell id="Bojr1MQls4f5MVIDZhrv-28" value="" style="endArrow=classic;html=1;entryX=0.5;entryY=0;entryDx=0;entryDy=0;" edge="1" parent="1">
          <mxGeometry width="50" height="50" relative="1" as="geometry">
            <mxPoint x="210" y="-570" as="sourcePoint" />
            <mxPoint x="210" y="-510" as="targetPoint" />
          </mxGeometry>
        </mxCell>
        <mxCell id="Bojr1MQls4f5MVIDZhrv-29" value="" style="endArrow=classic;html=1;entryX=0.5;entryY=0;entryDx=0;entryDy=0;" edge="1" parent="1">
          <mxGeometry width="50" height="50" relative="1" as="geometry">
            <mxPoint x="340.8299999999999" y="-570" as="sourcePoint" />
            <mxPoint x="341.65999999999985" y="-510" as="targetPoint" />
          </mxGeometry>
        </mxCell>
        <mxCell id="Bojr1MQls4f5MVIDZhrv-30" value="" style="edgeStyle=orthogonalEdgeStyle;rounded=0;orthogonalLoop=1;jettySize=auto;html=1;" edge="1" parent="1" source="Bojr1MQls4f5MVIDZhrv-32">
          <mxGeometry relative="1" as="geometry">
            <mxPoint x="-99.17000000000007" y="-600" as="targetPoint" />
            <Array as="points">
              <mxPoint x="100.82999999999998" y="-600" />
              <mxPoint x="-59.170000000000016" y="-600" />
            </Array>
          </mxGeometry>
        </mxCell>
        <mxCell id="Bojr1MQls4f5MVIDZhrv-31" value="" style="edgeStyle=orthogonalEdgeStyle;rounded=0;orthogonalLoop=1;jettySize=auto;html=1;" edge="1" parent="1" source="Bojr1MQls4f5MVIDZhrv-32" target="Bojr1MQls4f5MVIDZhrv-34">
          <mxGeometry relative="1" as="geometry" />
        </mxCell>
        <mxCell id="Bojr1MQls4f5MVIDZhrv-32" value="&lt;font color=&quot;#000000&quot;&gt;Bill park&lt;/font&gt;" style="rhombus;whiteSpace=wrap;html=1;rounded=0;fillColor=#FF99FF;" vertex="1" parent="1">
          <mxGeometry x="60.829999999999984" y="-690" width="80" height="80" as="geometry" />
        </mxCell>
        <mxCell id="Bojr1MQls4f5MVIDZhrv-33" value="yes" style="text;html=1;align=center;verticalAlign=middle;resizable=0;points=[];autosize=1;" vertex="1" parent="1">
          <mxGeometry x="0.8299999999999841" y="-640" width="30" height="20" as="geometry" />
        </mxCell>
        <mxCell id="Bojr1MQls4f5MVIDZhrv-34" value="Delete" style="ellipse;whiteSpace=wrap;html=1;rounded=0;fillColor=#e51400;strokeColor=#B20000;fontColor=#ffffff;" vertex="1" parent="1">
          <mxGeometry x="220.83000000000004" y="-670" width="70" height="40" as="geometry" />
        </mxCell>
        <mxCell id="Bojr1MQls4f5MVIDZhrv-35" value="No" style="text;html=1;align=center;verticalAlign=middle;resizable=0;points=[];autosize=1;" vertex="1" parent="1">
          <mxGeometry x="161.66000000000008" y="-680" width="30" height="20" as="geometry" />
        </mxCell>
        <mxCell id="Bojr1MQls4f5MVIDZhrv-36" value="" style="endArrow=classic;startArrow=classic;html=1;" edge="1" parent="1">
          <mxGeometry width="50" height="50" relative="1" as="geometry">
            <mxPoint x="-39.17000000000007" y="-651" as="sourcePoint" />
            <mxPoint x="60.82999999999993" y="-651" as="targetPoint" />
            <Array as="points">
              <mxPoint x="-4.170000000000016" y="-650.8299999999999" />
            </Array>
          </mxGeometry>
        </mxCell>
        <mxCell id="Bojr1MQls4f5MVIDZhrv-37" value="Maintaining Expenditure, Cashouts for reporting purposes&amp;nbsp;" style="rounded=0;whiteSpace=wrap;html=1;fillColor=#ffcccc;strokeColor=#36393d;" vertex="1" parent="1">
          <mxGeometry x="-620" y="-370" width="120" height="60" as="geometry" />
        </mxCell>
        <mxCell id="Bojr1MQls4f5MVIDZhrv-38" value="Customer details&lt;br&gt;&amp;amp;&lt;br&gt;Referred Person Details" style="rounded=0;whiteSpace=wrap;html=1;fillColor=#ffcccc;strokeColor=#36393d;" vertex="1" parent="1">
          <mxGeometry x="-449.17" y="-370" width="120" height="60" as="geometry" />
        </mxCell>
        <mxCell id="Bojr1MQls4f5MVIDZhrv-39" value="Rough estimation bill for selected food items" style="rounded=0;whiteSpace=wrap;html=1;fillColor=#ffcccc;strokeColor=#36393d;" vertex="1" parent="1">
          <mxGeometry x="-309.17" y="-370" width="120" height="60" as="geometry" />
        </mxCell>
        <mxCell id="Bojr1MQls4f5MVIDZhrv-40" value="Maintain Customer related information and based on visits &amp;amp; purchases&amp;nbsp;" style="rounded=0;whiteSpace=wrap;html=1;fillColor=#ffcccc;strokeColor=#36393d;" vertex="1" parent="1">
          <mxGeometry x="-159.17000000000002" y="-370" width="120" height="60" as="geometry" />
        </mxCell>
        <mxCell id="Bojr1MQls4f5MVIDZhrv-41" value="" style="edgeStyle=orthogonalEdgeStyle;rounded=0;orthogonalLoop=1;jettySize=auto;html=1;entryX=0.146;entryY=-0.042;entryDx=0;entryDy=0;entryPerimeter=0;" edge="1" parent="1" source="Bojr1MQls4f5MVIDZhrv-42" target="Bojr1MQls4f5MVIDZhrv-56">
          <mxGeometry relative="1" as="geometry">
            <mxPoint x="61" y="-80" as="targetPoint" />
          </mxGeometry>
        </mxCell>
        <mxCell id="Bojr1MQls4f5MVIDZhrv-42" value="Food Aggregators&lt;br&gt;Swiggy /Zomato" style="rounded=0;whiteSpace=wrap;html=1;fillColor=#ffcccc;strokeColor=#36393d;" vertex="1" parent="1">
          <mxGeometry x="0.8299999999999841" y="-370" width="120" height="60" as="geometry" />
        </mxCell>
        <mxCell id="Bojr1MQls4f5MVIDZhrv-43" value="" style="edgeStyle=orthogonalEdgeStyle;rounded=0;orthogonalLoop=1;jettySize=auto;html=1;entryX=0.5;entryY=0;entryDx=0;entryDy=0;" edge="1" parent="1" source="Bojr1MQls4f5MVIDZhrv-44" target="Bojr1MQls4f5MVIDZhrv-56">
          <mxGeometry relative="1" as="geometry">
            <mxPoint x="211" y="-90" as="targetPoint" />
            <Array as="points">
              <mxPoint x="206" y="-250" />
              <mxPoint x="206" y="-250" />
            </Array>
          </mxGeometry>
        </mxCell>
        <mxCell id="Bojr1MQls4f5MVIDZhrv-44" value="Partial Payments" style="rounded=0;whiteSpace=wrap;html=1;fillColor=#ffcccc;strokeColor=#36393d;" vertex="1" parent="1">
          <mxGeometry x="150.83000000000004" y="-370" width="120" height="60" as="geometry" />
        </mxCell>
        <mxCell id="Bojr1MQls4f5MVIDZhrv-45" value="" style="edgeStyle=orthogonalEdgeStyle;rounded=0;orthogonalLoop=1;jettySize=auto;html=1;" edge="1" parent="1" source="Bojr1MQls4f5MVIDZhrv-46" target="Bojr1MQls4f5MVIDZhrv-49">
          <mxGeometry relative="1" as="geometry" />
        </mxCell>
        <mxCell id="Bojr1MQls4f5MVIDZhrv-46" value="Credit orders&amp;nbsp;" style="rounded=0;whiteSpace=wrap;html=1;fillColor=#ffcccc;strokeColor=#36393d;" vertex="1" parent="1">
          <mxGeometry x="290" y="-370" width="120" height="60" as="geometry" />
        </mxCell>
        <mxCell id="Bojr1MQls4f5MVIDZhrv-47" value="" style="edgeStyle=orthogonalEdgeStyle;rounded=0;orthogonalLoop=1;jettySize=auto;html=1;" edge="1" parent="1" source="Bojr1MQls4f5MVIDZhrv-49" target="Bojr1MQls4f5MVIDZhrv-52">
          <mxGeometry relative="1" as="geometry" />
        </mxCell>
        <mxCell id="Bojr1MQls4f5MVIDZhrv-48" value="" style="edgeStyle=orthogonalEdgeStyle;rounded=0;orthogonalLoop=1;jettySize=auto;html=1;entryX=0;entryY=0.5;entryDx=0;entryDy=0;" edge="1" parent="1" source="Bojr1MQls4f5MVIDZhrv-49" target="Bojr1MQls4f5MVIDZhrv-50">
          <mxGeometry relative="1" as="geometry" />
        </mxCell>
        <mxCell id="Bojr1MQls4f5MVIDZhrv-49" value="Credit&amp;nbsp;&lt;br&gt;or&lt;br&gt;Payment" style="rhombus;whiteSpace=wrap;html=1;rounded=0;fillColor=#FF99FF;" vertex="1" parent="1">
          <mxGeometry x="310" y="-270" width="80" height="80" as="geometry" />
        </mxCell>
        <mxCell id="Bojr1MQls4f5MVIDZhrv-50" value="Credit orders List" style="whiteSpace=wrap;html=1;rounded=0;fillColor=#ffcccc;strokeColor=#36393d;" vertex="1" parent="1">
          <mxGeometry x="450" y="-260" width="120" height="60" as="geometry" />
        </mxCell>
        <mxCell id="Bojr1MQls4f5MVIDZhrv-51" value="" style="edgeStyle=orthogonalEdgeStyle;rounded=0;orthogonalLoop=1;jettySize=auto;html=1;" edge="1" parent="1" source="Bojr1MQls4f5MVIDZhrv-52" target="Bojr1MQls4f5MVIDZhrv-56">
          <mxGeometry relative="1" as="geometry" />
        </mxCell>
        <mxCell id="Bojr1MQls4f5MVIDZhrv-52" value="Full Payment" style="whiteSpace=wrap;html=1;rounded=0;fillColor=#ffcccc;strokeColor=#36393d;" vertex="1" parent="1">
          <mxGeometry x="290" y="-150" width="120" height="30" as="geometry" />
        </mxCell>
        <mxCell id="Bojr1MQls4f5MVIDZhrv-53" value="Payment" style="text;html=1;align=center;verticalAlign=middle;resizable=0;points=[];autosize=1;" vertex="1" parent="1">
          <mxGeometry x="290.83000000000004" y="-190" width="60" height="20" as="geometry" />
        </mxCell>
        <mxCell id="Bojr1MQls4f5MVIDZhrv-54" value="Credit" style="text;html=1;align=center;verticalAlign=middle;resizable=0;points=[];autosize=1;" vertex="1" parent="1">
          <mxGeometry x="450" y="-290" width="50" height="20" as="geometry" />
        </mxCell>
        <mxCell id="Bojr1MQls4f5MVIDZhrv-55" value="" style="edgeStyle=orthogonalEdgeStyle;rounded=0;orthogonalLoop=1;jettySize=auto;html=1;" edge="1" parent="1" source="Bojr1MQls4f5MVIDZhrv-56" target="Bojr1MQls4f5MVIDZhrv-59">
          <mxGeometry relative="1" as="geometry" />
        </mxCell>
        <mxCell id="Bojr1MQls4f5MVIDZhrv-56" value="&lt;font style=&quot;font-size: 21px&quot;&gt;&lt;b&gt;MODE OF PAYMENTS&lt;/b&gt;&lt;br&gt;&lt;i&gt;(Cash/Card/E-wallet)&lt;/i&gt;&lt;br&gt;&lt;/font&gt;" style="rounded=1;whiteSpace=wrap;html=1;fillColor=#6a00ff;strokeColor=#3700CC;fontColor=#ffffff;" vertex="1" parent="1">
          <mxGeometry x="0.8299999999999841" y="-70" width="410" height="60" as="geometry" />
        </mxCell>
        <mxCell id="Bojr1MQls4f5MVIDZhrv-57" value="" style="edgeStyle=orthogonalEdgeStyle;rounded=0;orthogonalLoop=1;jettySize=auto;html=1;" edge="1" parent="1" source="Bojr1MQls4f5MVIDZhrv-59" target="Bojr1MQls4f5MVIDZhrv-60">
          <mxGeometry relative="1" as="geometry" />
        </mxCell>
        <mxCell id="Bojr1MQls4f5MVIDZhrv-58" value="" style="edgeStyle=orthogonalEdgeStyle;rounded=0;orthogonalLoop=1;jettySize=auto;html=1;" edge="1" parent="1" source="Bojr1MQls4f5MVIDZhrv-59" target="Bojr1MQls4f5MVIDZhrv-63">
          <mxGeometry relative="1" as="geometry" />
        </mxCell>
        <mxCell id="Bojr1MQls4f5MVIDZhrv-59" value="Is Full&lt;br&gt;Payment&lt;br&gt;Done" style="rhombus;whiteSpace=wrap;html=1;rounded=1;fillColor=#FF99FF;" vertex="1" parent="1">
          <mxGeometry x="165.82999999999993" y="60" width="80" height="80" as="geometry" />
        </mxCell>
        <mxCell id="Bojr1MQls4f5MVIDZhrv-60" value="Search Orders&amp;nbsp;&lt;br&gt;Status=Paid" style="whiteSpace=wrap;html=1;rounded=1;fillColor=#ffcccc;strokeColor=#36393d;" vertex="1" parent="1">
          <mxGeometry x="-89.17000000000007" y="70" width="120" height="60" as="geometry" />
        </mxCell>
        <mxCell id="Bojr1MQls4f5MVIDZhrv-61" value="Yes" style="text;html=1;align=center;verticalAlign=middle;resizable=0;points=[];autosize=1;" vertex="1" parent="1">
          <mxGeometry x="80" y="70" width="40" height="20" as="geometry" />
        </mxCell>
        <mxCell id="Bojr1MQls4f5MVIDZhrv-62" value="" style="edgeStyle=orthogonalEdgeStyle;rounded=0;orthogonalLoop=1;jettySize=auto;html=1;" edge="1" parent="1" source="Bojr1MQls4f5MVIDZhrv-63" target="Bojr1MQls4f5MVIDZhrv-66">
          <mxGeometry relative="1" as="geometry" />
        </mxCell>
        <mxCell id="Bojr1MQls4f5MVIDZhrv-63" value="&lt;span&gt;Search Orders&amp;nbsp;&lt;/span&gt;&lt;br&gt;&lt;span&gt;Status=Pending&lt;/span&gt;" style="whiteSpace=wrap;html=1;rounded=1;fillColor=#ffcccc;strokeColor=#36393d;" vertex="1" parent="1">
          <mxGeometry x="434.9999999999999" y="70" width="120" height="60" as="geometry" />
        </mxCell>
        <mxCell id="Bojr1MQls4f5MVIDZhrv-64" value="No" style="text;html=1;align=center;verticalAlign=middle;resizable=0;points=[];autosize=1;" vertex="1" parent="1">
          <mxGeometry x="315" y="70" width="30" height="20" as="geometry" />
        </mxCell>
        <mxCell id="Bojr1MQls4f5MVIDZhrv-65" value="" style="edgeStyle=orthogonalEdgeStyle;rounded=0;orthogonalLoop=1;jettySize=auto;html=1;" edge="1" parent="1" source="Bojr1MQls4f5MVIDZhrv-66" target="Bojr1MQls4f5MVIDZhrv-56">
          <mxGeometry relative="1" as="geometry" />
        </mxCell>
        <mxCell id="Bojr1MQls4f5MVIDZhrv-66" value="View Order" style="whiteSpace=wrap;html=1;rounded=1;fillColor=#ffcccc;strokeColor=#36393d;" vertex="1" parent="1">
          <mxGeometry x="440" y="-70" width="110" height="60" as="geometry" />
        </mxCell>
        <mxCell id="Bojr1MQls4f5MVIDZhrv-67" value="Reprint the Tax Invoice" style="rounded=1;whiteSpace=wrap;html=1;fillColor=#ffcccc;strokeColor=#36393d;" vertex="1" parent="1">
          <mxGeometry x="-270" y="200" width="120" height="60" as="geometry" />
        </mxCell>
        <mxCell id="Bojr1MQls4f5MVIDZhrv-68" value="" style="edgeStyle=orthogonalEdgeStyle;rounded=0;orthogonalLoop=1;jettySize=auto;html=1;" edge="1" parent="1" source="Bojr1MQls4f5MVIDZhrv-69" target="Bojr1MQls4f5MVIDZhrv-71">
          <mxGeometry relative="1" as="geometry" />
        </mxCell>
        <mxCell id="Bojr1MQls4f5MVIDZhrv-69" value="Return Order" style="rounded=1;whiteSpace=wrap;html=1;fillColor=#ffcccc;strokeColor=#36393d;" vertex="1" parent="1">
          <mxGeometry x="-100" y="200" width="120" height="60" as="geometry" />
        </mxCell>
        <mxCell id="Bojr1MQls4f5MVIDZhrv-70" value="Edit Payment" style="rounded=1;whiteSpace=wrap;html=1;fillColor=#ffcccc;strokeColor=#36393d;" vertex="1" parent="1">
          <mxGeometry x="71.66" y="200" width="120" height="60" as="geometry" />
        </mxCell>
        <mxCell id="Bojr1MQls4f5MVIDZhrv-71" value="Item selection" style="rounded=1;whiteSpace=wrap;html=1;fillColor=#ffcccc;strokeColor=#36393d;" vertex="1" parent="1">
          <mxGeometry x="-94.5" y="330" width="109" height="60" as="geometry" />
        </mxCell>
        <mxCell id="Bojr1MQls4f5MVIDZhrv-72" value="" style="endArrow=classic;html=1;exitX=0.5;exitY=1;exitDx=0;exitDy=0;" edge="1" parent="1" source="Bojr1MQls4f5MVIDZhrv-71">
          <mxGeometry width="50" height="50" relative="1" as="geometry">
            <mxPoint x="-30" y="390" as="sourcePoint" />
            <mxPoint y="-50" as="targetPoint" />
            <Array as="points">
              <mxPoint x="-40" y="470" />
              <mxPoint x="-480" y="470" />
              <mxPoint x="-480" y="-50" />
            </Array>
          </mxGeometry>
        </mxCell>
        <mxCell id="Bojr1MQls4f5MVIDZhrv-73" value="" style="endArrow=classic;html=1;entryX=0.417;entryY=0;entryDx=0;entryDy=0;entryPerimeter=0;" edge="1" parent="1" target="Bojr1MQls4f5MVIDZhrv-67">
          <mxGeometry width="50" height="50" relative="1" as="geometry">
            <mxPoint x="-30.420000000000073" y="130" as="sourcePoint" />
            <mxPoint x="-30.25" y="220" as="targetPoint" />
          </mxGeometry>
        </mxCell>
        <mxCell id="Bojr1MQls4f5MVIDZhrv-74" value="" style="endArrow=classic;html=1;entryX=0.5;entryY=0;entryDx=0;entryDy=0;" edge="1" parent="1" target="Bojr1MQls4f5MVIDZhrv-69">
          <mxGeometry width="50" height="50" relative="1" as="geometry">
            <mxPoint x="-34.17000000000007" y="130" as="sourcePoint" />
            <mxPoint x="-30" y="200" as="targetPoint" />
          </mxGeometry>
        </mxCell>
        <mxCell id="Bojr1MQls4f5MVIDZhrv-75" value="" style="endArrow=classic;html=1;entryX=0.57;entryY=0;entryDx=0;entryDy=0;entryPerimeter=0;" edge="1" parent="1" target="Bojr1MQls4f5MVIDZhrv-70">
          <mxGeometry width="50" height="50" relative="1" as="geometry">
            <mxPoint x="-30" y="130" as="sourcePoint" />
            <mxPoint x="38.34" y="210" as="targetPoint" />
            <Array as="points" />
          </mxGeometry>
        </mxCell>
        <mxCell id="Bojr1MQls4f5MVIDZhrv-76" value="" style="endArrow=none;html=1;" edge="1" parent="1">
          <mxGeometry width="50" height="50" relative="1" as="geometry">
            <mxPoint x="130" y="260" as="sourcePoint" />
            <mxPoint x="-70" y="470" as="targetPoint" />
            <Array as="points">
              <mxPoint x="130" y="470" />
            </Array>
          </mxGeometry>
        </mxCell>
        <mxCell id="Bojr1MQls4f5MVIDZhrv-77" value="In-Dine POS" style="rounded=1;whiteSpace=wrap;html=1;fontStyle=1;fontSize=40;strokeColor=#82b366;fillColor=#FF3333;fontColor=#FFFFFF;" vertex="1" parent="1">
          <mxGeometry x="-297.17" y="-1128" width="448" height="60" as="geometry" />
        </mxCell>
        <mxCell id="Bojr1MQls4f5MVIDZhrv-78" value="Start" style="ellipse;whiteSpace=wrap;html=1;rounded=0;fontSize=24;fillColor=#d5e8d4;strokeColor=#82b366;gradientColor=#97d077;" vertex="1" parent="1">
          <mxGeometry x="-159.17000000000002" y="-1024" width="120" height="80" as="geometry" />
        </mxCell>
        <mxCell id="Bojr1MQls4f5MVIDZhrv-79" value="" style="endArrow=classic;html=1;fontSize=24;entryX=0.5;entryY=0;entryDx=0;entryDy=0;exitX=0.5;exitY=1;exitDx=0;exitDy=0;" edge="1" parent="1" source="Bojr1MQls4f5MVIDZhrv-78" target="Bojr1MQls4f5MVIDZhrv-3">
          <mxGeometry width="50" height="50" relative="1" as="geometry">
            <mxPoint x="-88" y="-944" as="sourcePoint" />
            <mxPoint x="-54" y="-994" as="targetPoint" />
          </mxGeometry>
        </mxCell>
        <mxCell id="Bojr1MQls4f5MVIDZhrv-80" value="End" style="ellipse;whiteSpace=wrap;html=1;rounded=0;fontSize=24;fillColor=#f8cecc;strokeColor=#b85450;gradientColor=#ea6b66;" vertex="1" parent="1">
          <mxGeometry x="-105.5" y="552" width="120" height="80" as="geometry" />
        </mxCell>
        <mxCell id="Bojr1MQls4f5MVIDZhrv-81" value="" style="endArrow=classic;html=1;fontSize=24;" edge="1" parent="1">
          <mxGeometry width="50" height="50" relative="1" as="geometry">
            <mxPoint x="-43.17000000000007" y="472" as="sourcePoint" />
            <mxPoint x="-43" y="552" as="targetPoint" />
          </mxGeometry>
        </mxCell>
      </root>
    </mxGraphModel>
  </diagram>
</mxfile>
